<?xml version="1.0" encoding="UTF-8"?>
<svg id="Capa_2" data-name="Capa 2" xmlns="http://www.w3.org/2000/svg" viewBox="0 0 678.94 223.02">
  <g id="Capa_1-2" data-name="Capa 1">
    <g>
      <g>
        <polygon points="458.11 105.04 458.11 15.1 478.66 15.1 478.66 0 458.11 0 443.01 0 422.46 0 422.46 15.1 443.01 15.1 443.01 105.04 458.11 105.04"/>
        <path d="M167.39,56.2h15.1V0h-56.2v105.04h15.1v-48.84h26ZM141.39,15.1h26v26h-26V15.1Z"/>
        <polygon points="256.49 105.04 256.49 105.04 256.49 89.94 256.49 89.94 256.49 0 241.38 0 241.38 89.94 215.38 89.94 215.38 0 200.28 0 200.28 89.94 200.28 105.04 215.38 105.04 241.38 105.04 256.49 105.04"/>
        <path d="M537.55,105.04h15.1V0h-56.2v105.04h41.1ZM511.55,15.1h26v74.84h-26V15.1Z"/>
        <path d="M374.46,59.12l23.71,45.92,13.42-6.93-20.13-38.99h13.14V0h-56.2v105.04h15.1v-45.92h10.97ZM363.49,15.1h26v28.92h-26V15.1Z"/>
        <polygon points="330.48 89.94 289.38 89.94 289.38 60.07 330.48 60.07 330.48 44.97 289.38 44.97 289.38 15.1 330.48 15.1 330.48 0 289.38 0 274.28 0 274.28 15.1 274.28 44.97 274.28 60.07 274.28 89.94 274.28 105.04 289.38 105.04 330.48 105.04 330.48 89.94"/>
      </g>
      <g>
        <polygon points="336.05 117.55 310.05 117.55 295.02 117.55 294.95 117.55 294.95 222.58 310.05 222.58 310.05 132.65 336.05 132.65 336.05 222.58 351.15 222.58 351.15 132.65 351.22 132.65 351.22 117.55 351.15 117.55 336.05 117.55"/>
        <polygon points="480.71 117.55 460.16 117.55 460.16 132.65 480.71 132.65 480.71 207.92 460.16 207.92 460.16 223.02 516.36 223.02 516.36 207.92 495.81 207.92 495.81 132.65 516.36 132.65 516.36 117.55 495.81 117.55 480.71 117.55"/>
        <path d="M427.45,117.55h-42v89.94h-16.62v15.1h58.62s15.1,0,15.1,0v-105.04h-15.1ZM400.55,207.48v-74.84h26.9v74.84h-26.9Z"/>
        <path d="M237.08,117.55h-15.1v105.04h56.2v-105.04h-41.1ZM263.08,207.48h-26v-74.84h26v74.84Z"/>
        <path d="M592.59,117.55h-42v89.94h-16.62v15.1h58.62s15.1,0,15.1,0v-105.04h-15.1ZM565.69,207.48v-74.84h26.9v74.84h-26.9Z"/>
        <path d="M663.84,117.55h-41.1v105.04h56.2v-105.04h-15.1ZM663.84,207.48h-26v-74.84h26v74.84Z"/>
        <polygon points="0 117.55 0 132.65 0 162.51 0 177.62 0 207.48 0 222.58 15.1 222.58 56.2 222.58 56.2 207.48 15.1 207.48 15.1 177.62 56.2 177.62 56.2 162.51 15.1 162.51 15.1 132.65 56.2 132.65 56.2 117.55 15.1 117.55 0 117.55"/>
        <polygon points="147.98 117.55 147.98 132.65 147.98 207.48 147.98 222.58 163.09 222.58 204.19 222.58 204.19 207.48 163.09 207.48 163.09 132.65 204.19 132.65 204.19 117.55 163.09 117.55 147.98 117.55"/>
        <polygon points="73.99 117.55 73.99 132.65 73.99 162.51 73.99 177.62 89.09 177.62 115.09 177.62 115.09 207.48 73.99 207.48 73.99 222.58 115.09 222.58 115.09 222.58 130.2 222.58 130.2 222.58 130.2 207.48 130.2 177.62 130.2 162.51 130.2 162.51 89.09 162.51 89.09 132.65 130.2 132.65 130.2 117.55 89.09 117.55 73.99 117.55"/>
      </g>
    </g>
  </g>
</svg>