<?xml version="1.0" encoding="UTF-8"?>
<svg id="Capa_2" data-name="Capa 2" xmlns="http://www.w3.org/2000/svg" viewBox="0 0 747.25 245.46">
  <g id="Capa_1-2" data-name="Capa 1">
    <g>
      <polygon points="365.2 115.61 365.2 16.62 387.82 16.62 387.82 0 365.2 0 348.58 0 325.96 0 325.96 16.62 348.58 16.62 348.58 115.61 365.2 115.61"/>
      <path d="M45.24,61.86h16.62V0H0v115.61h16.62v-53.75h28.62ZM16.62,16.62h28.62v28.62h-28.62v-28.62Z"/>
      <polygon points="143.29 115.61 143.29 115.61 143.29 98.99 143.29 98.99 143.29 0 126.67 0 126.67 98.99 98.06 98.99 98.06 0 81.44 0 81.44 98.99 81.44 115.61 98.06 115.61 126.67 115.61 143.29 115.61"/>
      <polygon points="369.86 129.37 341.25 129.37 324.7 129.37 324.62 129.37 324.62 244.98 341.25 244.98 341.25 145.99 369.86 145.99 369.86 244.98 386.48 244.98 386.48 145.99 386.56 145.99 386.56 129.37 386.48 129.37 369.86 129.37"/>
      <polygon points="529.08 129.37 506.46 129.37 506.46 145.99 529.08 145.99 529.08 228.84 506.46 228.84 506.46 245.46 568.31 245.46 568.31 228.84 545.7 228.84 545.7 145.99 568.31 145.99 568.31 129.37 545.7 129.37 529.08 129.37"/>
      <path d="M452.64,115.61h16.62V0h-61.86v115.61h45.24ZM424.02,16.62h28.62v82.36h-28.62V16.62Z"/>
      <path d="M470.46,129.37h-46.23v98.99h-18.29v16.62h64.52s16.62,0,16.62,0v-115.61h-16.62ZM440.85,228.36v-82.36h29.6v82.36h-29.6Z"/>
      <path d="M260.93,129.37h-16.62v115.61h61.86v-115.61h-45.24ZM289.55,228.36h-28.62v-82.36h28.62v82.36Z"/>
      <path d="M652.21,129.37h-46.23v98.99h-18.29v16.62h64.52s16.62,0,16.62,0v-115.61h-16.62ZM622.61,228.36v-82.36h29.6v82.36h-29.6Z"/>
      <path d="M730.63,129.37h-45.24v115.61h61.86v-115.61h-16.62ZM730.63,228.36h-28.62v-82.36h28.62v82.36Z"/>
      <path d="M273.14,65.07l26.09,50.54,14.77-7.62-22.16-42.91h14.46V0h-61.86v115.61h16.62v-50.54h12.07ZM261.06,16.62h28.62v31.83h-28.62v-31.83Z"/>
      <polygon points="224.73 98.99 179.49 98.99 179.49 66.11 224.73 66.11 224.73 49.49 179.49 49.49 179.49 16.62 224.73 16.62 224.73 0 179.49 0 162.87 0 162.87 16.62 162.87 49.49 162.87 66.11 162.87 98.99 162.87 115.61 179.49 115.61 224.73 115.61 224.73 98.99"/>
      <polygon points="0 129.37 0 145.99 0 178.87 0 195.49 0 228.36 0 244.98 16.62 244.98 61.86 244.98 61.86 228.36 16.62 228.36 16.62 195.49 61.86 195.49 61.86 178.87 16.62 178.87 16.62 145.99 61.86 145.99 61.86 129.37 16.62 129.37 0 129.37"/>
      <polygon points="162.87 129.37 162.87 145.99 162.87 228.36 162.87 244.98 179.49 244.98 224.73 244.98 224.73 228.36 179.49 228.36 179.49 145.99 224.73 145.99 224.73 129.37 179.49 129.37 162.87 129.37"/>
      <polygon points="81.44 129.37 81.44 145.99 81.44 178.87 81.44 195.49 98.06 195.49 126.67 195.49 126.67 228.36 81.44 228.36 81.44 244.98 126.67 244.98 126.67 244.98 143.29 244.98 143.29 244.98 143.29 228.36 143.29 195.49 143.29 178.87 143.29 178.87 98.06 178.87 98.06 145.99 143.29 145.99 143.29 129.37 98.06 129.37 81.44 129.37"/>
    </g>
  </g>
</svg>