<?xml version="1.0" encoding="UTF-8"?>
<svg id="Capa_2" data-name="Capa 2" xmlns="http://www.w3.org/2000/svg" viewBox="0 0 1200.48 105.5">
  <g id="Capa_1-2" data-name="Capa 1">
    <g>
      <polygon points="331.9 105.28 331.9 15.32 352.45 15.32 352.45 .22 331.9 .22 316.79 .22 296.24 .22 296.24 15.32 316.79 15.32 316.79 105.28 331.9 105.28"/>
      <path d="M41.11,56.43h15.1V.22H0v105.06h15.11v-48.85h26.01ZM15.11,15.32h26.01v26.01H15.11V15.32Z"/>
      <polygon points="130.23 105.28 130.23 105.28 130.23 90.18 130.23 90.18 130.23 .22 115.12 .22 115.12 90.18 89.12 90.18 89.12 .22 74.01 .22 74.01 90.18 74.01 105.28 89.12 105.28 115.12 105.28 130.23 105.28"/>
      <polygon points="857.5 0 831.49 0 816.46 0 816.39 0 816.39 105.06 831.49 105.06 831.49 15.11 857.5 15.11 857.5 105.06 872.61 105.06 872.61 15.11 872.68 15.11 872.68 0 872.61 0 857.5 0"/>
      <polygon points="1002.2 0 981.64 0 981.64 15.11 1002.2 15.11 1002.2 90.39 981.64 90.39 981.64 105.5 1037.86 105.5 1037.86 90.39 1017.3 90.39 1017.3 15.11 1037.86 15.11 1037.86 0 1017.3 0 1002.2 0"/>
      <path d="M411.36,105.28h15.11V.22h-56.22v105.06h41.11ZM385.35,15.32h26.01v74.85h-26.01V15.32Z"/>
      <path d="M948.92,0h-42.01v89.96h-16.63v15.1h58.64s15.1,0,15.1,0V0h-15.1ZM922.02,89.96V15.11h26.91v74.85h-26.91Z"/>
      <path d="M758.51,0h-15.1v105.06h56.22V0h-41.11ZM784.51,89.96h-26.01V15.11h26.01v74.85Z"/>
      <path d="M1114.1,0h-42.01v89.96h-16.63v15.1h58.64s15.1,0,15.1,0V0h-15.1ZM1087.2,89.96V15.11h26.91v74.85h-26.91Z"/>
      <path d="M1185.37,0h-41.11v105.06h56.22V0h-15.1ZM1185.37,89.96h-26.01V15.11h26.01v74.85Z"/>
      <path d="M248.23,59.35l23.71,45.93,13.42-6.93-20.14-39h13.14V.22h-56.22v105.06h15.1v-45.93h10.97ZM237.25,15.32h26.01v28.92h-26.01V15.32Z"/>
      <polygon points="204.24 90.18 163.13 90.18 163.13 60.3 204.24 60.3 204.24 45.2 163.13 45.2 163.13 15.32 204.24 15.32 204.24 .22 163.13 .22 148.02 .22 148.02 15.32 148.02 45.2 148.02 60.3 148.02 90.18 148.02 105.28 163.13 105.28 204.24 105.28 204.24 90.18"/>
      <polygon points="521.37 0 521.37 15.11 521.37 44.98 521.37 60.08 521.37 89.96 521.37 105.06 536.47 105.06 577.59 105.06 577.59 89.96 536.47 89.96 536.47 60.08 577.59 60.08 577.59 44.98 536.47 44.98 536.47 15.11 577.59 15.11 577.59 0 536.47 0 521.37 0"/>
      <polygon points="669.39 0 669.39 15.11 669.39 89.96 669.39 105.06 684.49 105.06 725.61 105.06 725.61 89.96 684.49 89.96 684.49 15.11 725.61 15.11 725.61 0 684.49 0 669.39 0"/>
      <polygon points="595.38 0 595.38 15.11 595.38 44.98 595.38 60.08 610.48 60.08 636.49 60.08 636.49 89.96 595.38 89.96 595.38 105.06 636.49 105.06 636.49 105.06 651.6 105.06 651.6 105.06 651.6 89.96 651.6 60.08 651.6 44.98 651.6 44.98 610.48 44.98 610.48 15.11 651.6 15.11 651.6 0 610.48 0 595.38 0"/>
    </g>
  </g>
</svg>